<svg width="363" height="363" viewBox="0 0 363 363" fill="none" xmlns="http://www.w3.org/2000/svg">
<g clip-path="url(#clip0_15_117)">
<path d="M363 181.43C363 281.265 281.482 362.721 181.43 362.721C81.5184 362.721 0 281.265 0 181.43C0 81.4558 81.5184 0 181.43 0C281.482 0 363 81.4558 363 181.43ZM241.489 109.861L160.946 237.823L120.814 187.696C117.051 182.822 113.568 181.291 109.248 181.291C102.281 181.291 96.8463 187 96.8463 193.962C96.8463 197.443 98.2397 200.924 100.609 203.987L148.126 261.355C152.167 266.506 156.208 268.734 161.504 268.734C166.799 268.734 171.119 266.228 174.324 261.355L261.695 124.481C263.506 121.557 265.318 117.937 265.318 114.595C265.318 107.493 259.186 102.76 252.497 102.76C248.317 102.76 244.276 105.266 241.489 109.861Z" fill="#F9951D"/>
</g>
<defs>
<clipPath id="clip0_15_117">
<rect width="363" height="363" fill="white"/>
</clipPath>
</defs>
</svg>
